<svg width="35" height="35" viewBox="0 0 35 35" fill="none" xmlns="http://www.w3.org/2000/svg">
<path d="M30.0234 16.5265L5.96095 4.49527C5.77235 4.40096 5.56052 4.36317 5.35094 4.38645C5.14137 4.40974 4.94299 4.49311 4.7797 4.62652C4.62376 4.75722 4.50736 4.92882 4.4436 5.12204C4.37984 5.31526 4.37124 5.52243 4.41876 5.72027L7.3172 16.4062H19.6875V18.5937H7.3172L4.37501 29.2468C4.33041 29.4121 4.32521 29.5854 4.35981 29.753C4.39442 29.9206 4.46786 30.0778 4.57425 30.2118C4.68063 30.3458 4.81699 30.4531 4.97234 30.5248C5.1277 30.5966 5.29773 30.6309 5.46876 30.625C5.63998 30.6239 5.80856 30.5827 5.96095 30.5046L30.0234 18.4734C30.2026 18.3816 30.353 18.2422 30.4579 18.0704C30.5629 17.8987 30.6185 17.7013 30.6185 17.5C30.6185 17.2987 30.5629 17.1013 30.4579 16.9295C30.353 16.7578 30.2026 16.6183 30.0234 16.5265Z" fill="#121B2C"/>
</svg>
